# xmcd CD database file
#
# Track frame offsets:
#	150
#	16377
#	33240
#	51555
#
# Disc length: 1053 seconds
#
# Revision: 1
# Processed by: cddbd v1.4PL0 Copyright (c) Steve Scherf et al.
# Submitted via: CDex 1.40Release
#
DISCID=2d041b04
DTITLE=Espiritu - Los Americanos ep
DYEAR=1993
DGENRE=Latin
TTITLE0=Los Americanos
TTITLE1=Manifesto #1
TTITLE2=Los Americanos (instrumental)
TTITLE3=Los Americanos (Mother mix)
EXTD=YEAR: 1993 ID3G: 86
EXTT0=
EXTT1=
EXTT2=
EXTT3=
PLAYORDER=
